<?xml version="1.0" encoding="utf-8"?>
<!-- Generator: Adobe Illustrator 22.0.1, SVG Export Plug-In . SVG Version: 6.00 Build 0)  -->
<svg version="1.1" id="圖層_1" xmlns="http://www.w3.org/2000/svg" xmlns:xlink="http://www.w3.org/1999/xlink" x="0px" y="0px"
	 width="100px" height="80px" viewBox="0 0 100 80" style="enable-background:new 0 0 100 80;" xml:space="preserve">
<style type="text/css">
	.st0{fill:#F5CE2E;}
	.st1{fill:#FFFFFF;}
</style>
<path class="st0" d="M80.8,25.4l14.2,29c-10.8,0-23.4,0-23.4,0l3.2-7.5c0,0,0.3-0.4,0.7-0.4c4.2,0,7,0,7,0l-5.7-13.3l-8.8,20.7
	c0,0-0.2,0.4-0.5,0.4c-3,0-8.6,0-8.6,0l12.9-29H80.8z"/>
<g>
	<path class="st0" d="M61.9,25.5c-3.1,0-5.9,0-8.8,0c0,3.4-0.1,7-0.1,10.5c0,0.3,0,0.6,0,0.9c-4.6,0-6.5,0-11.4,0c0-0.3,0-0.2,0-0.3
		c0-3.7,0-7.3,0-10.9c0-0.1,0-0.2,0-0.2c-1.3,0-2.5,0-3.8,0c-1.6,2.4-3.3,5.2-4.9,7.9c-0.1,0.2-0.2,0.5-0.2,0.7c0,6.7,0,13.4,0,20
		c0,0.2,0,0.4,0,0.4c3.1,0,5.9,0,8.9,0c0-3.4,0-6.8,0-9.9c4.9,0,6.8,0,11.7,0c0,3.4,0,6.5,0,9.9c1,0,2.5,0,2.8,0
		c0.3,0,0.5,0,0.8-0.5l5-11.5C62,42.3,62,42.1,62,42C61.9,36.4,61.9,31,61.9,25.5z"/>
</g>
<path class="st1" d="M34.7,25.4c-1.5,2.4-3,4.7-4.5,7.2c-0.2,0.3-0.4,0.4-0.8,0.4c-2,0-2.9,0-4.9,0c-0.2,0-0.3,0-0.5,0
	c0,7.2,0,21.4,0,21.4h-9c0,0,0-16.8,0-20.9c0-0.2,0-0.3,0-0.5c-0.2,0-0.4,0-0.5,0c-2.1,0-3,0-5.1,0c-0.2,0-0.4,0-0.5-0.3
	c-1.3-2.4-2.5-4.7-3.9-7.1C5,25.6,5,25.5,5,25.4C15.7,25.4,24,25.4,34.7,25.4z"/>
</svg>
