<?xml version="1.0" encoding="utf-8"?>
<!-- Generator: Adobe Illustrator 22.0.1, SVG Export Plug-In . SVG Version: 6.00 Build 0)  -->
<svg version="1.1" id="Capa_1" xmlns="http://www.w3.org/2000/svg" xmlns:xlink="http://www.w3.org/1999/xlink" x="0px" y="0px"
	 width="50px" height="50px" viewBox="0 0 50 50" style="enable-background:new 0 0 50 50;" xml:space="preserve">
<style type="text/css">
	.st0{fill:#2782D5;}
</style>
<path class="st0" d="M48.2,22.9H6.7L24,5.6c0.4-0.4,0.6-0.8,0.6-1.4c0-0.4-0.2-1-0.6-1.4c-0.8-0.8-2.2-0.8-2.8,0L0.6,23.7
	C0.2,24.1,0,24.5,0,25.2s0.2,1,0.6,1.4l20.7,20.7c0.4,0.4,0.8,0.6,1.4,0.6s1-0.2,1.4-0.6c0.8-0.8,0.8-2,0-2.8L6.7,27H48
	c1.2,0,2-0.8,2-2S49.2,22.9,48.2,22.9z"/>
</svg>
