<?xml version="1.0" encoding="utf-8"?>
<!-- Generator: Adobe Illustrator 16.0.0, SVG Export Plug-In . SVG Version: 6.00 Build 0)  -->
<svg version="1.2" baseProfile="tiny" id="圖層_1"
	 xmlns="http://www.w3.org/2000/svg" xmlns:xlink="http://www.w3.org/1999/xlink" x="0px" y="0px" width="78px" height="87px"
	 viewBox="0 0 78 87" xml:space="preserve">
<g>
	<path fill="#348DD0" d="M44.74,0.25H6.81C4.1,0.25,1.9,2.7,1.9,5.72v75.57c0,3.02,2.2,5.47,4.91,5.47h37.93
		c2.71,0,4.91-2.45,4.91-5.47V5.72C49.65,2.7,47.45,0.25,44.74,0.25z M26.03,80c-2.07,0-3.75-1.68-3.75-3.75s1.68-3.75,3.75-3.75
		c2.07,0,3.75,1.68,3.75,3.75S28.1,80,26.03,80z M45.15,69.75H6.4V8.25h38.75V69.75z"/>
	<g>
		<path fill="none" stroke="#348DD0" stroke-width="6" stroke-miterlimit="10" d="M58.03,32.38c0,0,8.63,10.13,0,22.38"/>
		<path fill="none" stroke="#348DD0" stroke-width="6" stroke-miterlimit="10" d="M69.51,24.52c0,0,14.84,17.42,0,38.5"/>
	</g>
</g>
</svg>
