<?xml version="1.0" encoding="utf-8"?>
<!-- Generator: Adobe Illustrator 26.0.3, SVG Export Plug-In . SVG Version: 6.00 Build 0)  -->
<svg version="1.1" id="圖層_1" xmlns="http://www.w3.org/2000/svg" xmlns:xlink="http://www.w3.org/1999/xlink" x="0px" y="0px"
	 width="50px" height="50px" viewBox="0 0 50 50" style="enable-background:new 0 0 50 50;" xml:space="preserve">
<style type="text/css">
	.st0{fill:#FFCD00;}
	.st1{fill:#1A1311;}
</style>
<g>
	<path id="路径_478" class="st0" d="M17.3,32.7c-0.3,0.3-0.3,0.8,0,1c0.3,0.3,0.8,0.3,1,0c0.3-0.3,0.3-0.8,0-1
		C18.1,32.5,17.6,32.5,17.3,32.7C17.3,32.7,17.3,32.7,17.3,32.7"/>
	<path id="路径_479" class="st0" d="M27.1,4.1c-1.2-1.2-3-1.2-4.2,0L4.1,22.9c-1.2,1.2-1.2,3,0,4.2l18.8,18.8c1.2,1.2,3,1.2,4.2,0
		l18.8-18.8c1.2-1.2,1.2-3,0-4.2L27.1,4.1z M18.2,16.2l0.5,0.5L16.3,19l-0.5-0.5L18.2,16.2z M12.5,22l2-2l0.6,0.6l5.1-5.1
		c0.6-0.6,1.4-1,2.3-1c1.4,0,2.7,0.9,4,2.6c-0.6-0.2-1.2-0.3-1.8-0.3c-0.9,0-1.7,0.3-2.3,0.9l-5.1,5.1l0.5,0.5l-2,2L12.5,22z
		 M25.2,23l-2.5,2.5l-3.9-4.1l2.4-2.4L25.2,23z M32.2,35.6l-6.8-7.1l2.7-2.7l7.1,6.8L32.2,35.6z M34.3,21.9c-0.6,0.6-1.5,1-2.4,1
		c-0.3,0-0.7-0.1-1-0.2l-9,9l0,0l-2.8,2.8c-0.7,0.7-1.8,0.7-2.5,0c-0.7-0.7-0.7-1.8,0-2.5l2.8-2.8l9-9c-0.1-0.3-0.1-0.6-0.1-0.9
		c0-1.9,1.5-3.4,3.3-3.4c0,0,0,0,0.1,0c0.3,0,0.7,0,1,0.1l-1.8,1.8c-0.6,0.8-0.4,1.9,0.4,2.5c0.6,0.5,1.5,0.5,2.2,0l1.8-1.8
		c0.1,0.3,0.1,0.6,0.1,1C35.3,20.4,34.9,21.3,34.3,21.9"/>
	<path id="路径_480" class="st0" d="M48.8,22.1L27.9,1.2c-1.6-1.6-4.2-1.6-5.8,0L1.2,22.1c-1.6,1.6-1.6,4.2,0,5.8l20.9,20.9
		c1.6,1.6,4.2,1.6,5.8,0l20.9-20.9C50.4,26.3,50.4,23.7,48.8,22.1 M46.9,28.1L28.1,46.9c-1.7,1.7-4.5,1.7-6.2,0L3.1,28.1
		c-1.7-1.7-1.7-4.5,0-6.2L21.9,3.1c1.7-1.7,4.5-1.7,6.2,0l18.8,18.8C48.6,23.6,48.6,26.4,46.9,28.1"/>
	<path id="路径_481" class="st1" d="M28.1,3.1c-1.7-1.7-4.5-1.7-6.2,0L3.1,21.9c-1.7,1.7-1.7,4.5,0,6.2l18.8,18.8
		c1.7,1.7,4.5,1.7,6.2,0l18.8-18.8c1.7-1.7,1.7-4.5,0-6.2L28.1,3.1z M45.9,27.1L27.1,45.9c-1.2,1.2-3,1.2-4.2,0L4.1,27.1
		c-1.2-1.2-1.2-3,0-4.2L22.9,4.1c1.2-1.2,3-1.2,4.2,0l18.8,18.8C47.1,24.1,47.1,25.9,45.9,27.1"/>
	<path id="路径_482" class="st1" d="M18.7,21.5l3.9,4.1l2.5-2.5l-4.1-3.9L18.7,21.5z"/>
	
		<rect id="矩形_136" x="15.6" y="17.3" transform="matrix(0.7071 -0.7071 0.7071 0.7071 -7.4024 17.3598)" class="st1" width="3.3" height="0.6"/>
	<path id="路径_483" class="st1" d="M17.2,22.7l5.1-5.1c0.6-0.6,1.4-0.9,2.3-0.9c0.6,0,1.2,0.1,1.8,0.3c-1.3-1.8-2.6-2.6-4-2.6
		c-0.9,0-1.7,0.4-2.3,1L15,20.6L14.4,20l-2,2l3.3,3.3l2-2L17.2,22.7z"/>
	<path id="路径_484" class="st1" d="M25.5,28.5l6.8,7.1l3-3l-7.1-6.8L25.5,28.5z"/>
	<path id="路径_485" class="st1" d="M33.3,20.3c-0.8,0.6-1.9,0.4-2.5-0.4c-0.5-0.6-0.5-1.5,0-2.2l1.8-1.8c-0.3-0.1-0.6-0.1-1-0.1
		c-1.9,0-3.4,1.5-3.4,3.4c0,0,0,0,0,0.1c0,0.3,0,0.6,0.1,0.9l-9,9L16.6,32c-0.7,0.7-0.7,1.8,0,2.5c0.7,0.7,1.8,0.7,2.5,0l2.8-2.8
		l0,0l9-9c0.3,0.1,0.7,0.2,1,0.2c1.9,0,3.4-1.5,3.4-3.4c0,0,0,0,0,0c0-0.3,0-0.7-0.1-1L33.3,20.3z M18.4,33.8c-0.3,0.3-0.8,0.3-1,0
		s-0.3-0.8,0-1c0.3-0.3,0.8-0.3,1,0C18.7,33,18.7,33.5,18.4,33.8C18.4,33.8,18.4,33.8,18.4,33.8"/>
</g>
</svg>
