<?xml version="1.0" encoding="utf-8"?>
<!-- Generator: Adobe Illustrator 26.0.3, SVG Export Plug-In . SVG Version: 6.00 Build 0)  -->
<svg version="1.1" id="栝鍣_1" xmlns="http://www.w3.org/2000/svg" xmlns:xlink="http://www.w3.org/1999/xlink" x="0px" y="0px"
	 width="54px" height="62px" viewBox="0 0 54 62" style="enable-background:new 0 0 54 62;" xml:space="preserve">
<style type="text/css">
	.st0{opacity:0.5;clip-path:url(#XMLID_00000070090217641470033260000001219808833158339251_);fill:#AF0022;}
	.st1{fill:#FFFFFF;}
</style>
<g id="侹禖嶱鼨懧鎀_4">
	<g>
		<defs>
			<path id="XMLID_49_" d="M13.66,52.11C4.36,46.06,0,37.3,0,26.92C0,11.63,12.75-0.68,28.19,0.03
				C41.96,0.66,53.14,11.82,53.8,25.59c0.56,11.55-6.17,21.59-15.98,25.94v7.24c0,3.55-1.23,3.75-4.47,2.62
				C33.35,61.39,22.96,58.16,13.66,52.11z"/>
		</defs>
		
			<linearGradient id="XMLID_00000025440419694501178970000013383373029705902513_" gradientUnits="userSpaceOnUse" x1="124.5002" y1="-1.9647" x2="96.8968" y2="44.2574" gradientTransform="matrix(-1 0 0 1 133.7814 0)">
			<stop  offset="0" style="stop-color:#D000AA"/>
			<stop  offset="1" style="stop-color:#FF2E2E"/>
		</linearGradient>
		<use xlink:href="#XMLID_49_"  style="overflow:visible;fill:url(#XMLID_00000025440419694501178970000013383373029705902513_);"/>
		<clipPath id="XMLID_00000145759156216034778600000007860796654763166129_">
			<use xlink:href="#XMLID_49_"  style="overflow:visible;"/>
		</clipPath>
		<path style="opacity:0.5;clip-path:url(#XMLID_00000145759156216034778600000007860796654763166129_);fill:#AF0022;" d="
			M37.82,51.71v4.06c-1.97,0.42-4.01,0.65-6.1,0.65c-4.75,0-9.24-1.14-13.2-3.17c-0.08-0.04-0.03-0.17,0.06-0.14
			c2.43,0.66,4.99,1.02,7.63,1.02C30.34,54.12,34.27,53.26,37.82,51.71z"/>
	</g>
</g>
<g>
	<path class="st1" d="M10,24.9c-0.18,0.07-0.37,0.06-0.56-0.02c-0.18-0.11-0.31-0.24-0.38-0.39c-0.06-0.19-0.04-0.4,0.07-0.62
		c0.53-1.24,0.93-2.73,1.19-4.47c-0.01-0.04-0.01-0.06,0-0.07c0.1-0.85,0.15-1.67,0.15-2.47c0-0.24,0.06-0.43,0.18-0.59
		c0.12-0.14,0.29-0.22,0.51-0.23c0.19,0,0.36,0.06,0.5,0.18c0.23,0.25,0.26,1.21,0.11,2.89c0.5,0.91,0.94,1.57,1.3,1.97
		c0-2.04,0-4.04,0.01-6l-2.87,0c-0.25,0-0.44-0.07-0.56-0.21c-0.13-0.13-0.2-0.31-0.2-0.53c0.01-0.2,0.08-0.37,0.2-0.51
		c0.14-0.14,0.33-0.21,0.56-0.21l2.87,0c0-0.65,0-1.3,0-1.94l-2.29,0c-0.25,0-0.44-0.07-0.56-0.21c-0.13-0.13-0.2-0.31-0.2-0.53
		c0.01-0.2,0.08-0.37,0.2-0.51c0.14-0.14,0.33-0.21,0.56-0.21l2.29,0c0.01-1.15,0.08-1.78,0.2-1.88c0.13-0.13,0.31-0.2,0.54-0.19
		c0.2,0.01,0.38,0.08,0.52,0.2c0.16,0.14,0.23,0.33,0.23,0.55c0,0.45,0,0.89,0,1.33l1.84,0c0.24,0.01,0.42,0.08,0.54,0.2
		c0.13,0.13,0.2,0.31,0.2,0.53c-0.01,0.2-0.08,0.37-0.2,0.51c-0.13,0.15-0.31,0.23-0.54,0.23l-1.84,0c0,0.64,0,1.28,0,1.94l2.13,0
		c0.24,0.01,0.42,0.08,0.54,0.2c0.13,0.13,0.2,0.31,0.2,0.53c-0.01,0.2-0.08,0.37-0.2,0.51c-0.13,0.15-0.31,0.23-0.54,0.23l-2.13,0
		c0,0.78,0,1.57,0,2.36l1.98,0c0.24,0.01,0.42,0.08,0.54,0.2c0.13,0.13,0.2,0.31,0.2,0.53c-0.01,0.2-0.08,0.37-0.2,0.51
		c-0.13,0.15-0.31,0.23-0.54,0.23l-1.98,0c0,1.12,0,2.26,0,3.41c0.04,0.02,0.08,0.04,0.13,0.05c1.2,0.57,2.96,0.86,5.28,0.86
		l5.59,0.01c0.25,0,0.46,0.07,0.61,0.21c0.14,0.14,0.22,0.33,0.23,0.55c0,0.21-0.07,0.4-0.22,0.55c-0.16,0.15-0.37,0.23-0.63,0.23
		l-5.03,0c-1.31-0.03-2.56-0.11-3.75-0.27c-2.18-0.29-3.97-1.34-5.37-3.17C10.87,23.57,10.4,24.76,10,24.9z M18.29,10.65
		c-0.26,0-0.46-0.07-0.58-0.21c-0.13-0.13-0.2-0.3-0.2-0.52c0.01-0.21,0.08-0.38,0.2-0.5c0.16-0.12,0.35-0.18,0.58-0.18l6.11,0.01
		c0.44,0,0.81,0.13,1.1,0.39c0.24,0.26,0.36,0.59,0.36,0.99c0,2.18-0.18,3.57-0.54,4.17c-0.16,0.27-0.43,0.47-0.83,0.59
		c-0.89,0.3-1.79,0.26-2.69-0.09c-0.26-0.12-0.44-0.27-0.52-0.44c-0.08-0.2-0.08-0.41,0-0.64c0.2-0.47,0.58-0.61,1.12-0.43
		c0.58,0.26,1.03,0.32,1.37,0.18c0.12-0.05,0.22-0.14,0.29-0.28c0.07-0.15,0.13-0.47,0.18-0.94c0.07-1.1,0.02-1.74-0.16-1.92
		c-0.14-0.12-0.33-0.18-0.56-0.18l-1.8,0c-0.37,2.02-1.23,3.63-2.57,4.81c-0.89,0.76-1.58,1.08-2.06,0.96
		c-0.19-0.07-0.33-0.2-0.41-0.37c-0.2-0.5-0.07-0.84,0.4-1.03c1.7-0.85,2.76-2.31,3.2-4.37L18.29,10.65z M18.75,22.37
		c-0.31-0.01-0.55-0.12-0.7-0.34c-0.2-0.26-0.3-0.54-0.29-0.83l0-3.92c0-0.27,0.1-0.5,0.29-0.69c0.2-0.2,0.44-0.3,0.7-0.3l5.9,0.01
		c0.35-0.01,0.64,0.09,0.87,0.3c0.19,0.18,0.29,0.41,0.31,0.69l0,3.92c0,0.32-0.13,0.59-0.38,0.82c-0.23,0.22-0.49,0.34-0.79,0.35
		L18.75,22.37z M19.84,17.68c-0.22,0-0.36,0.04-0.43,0.12c-0.11,0.12-0.16,0.27-0.14,0.44l0,2.15c0.01,0.2,0.06,0.34,0.14,0.43
		c0.1,0.1,0.24,0.14,0.43,0.14l3.93,0c0.2-0.02,0.35-0.08,0.43-0.16c0.08-0.08,0.13-0.22,0.13-0.41l0-2.15
		c0-0.18-0.04-0.31-0.13-0.39c-0.1-0.12-0.24-0.18-0.43-0.18L19.84,17.68z"/>
	<path class="st1" d="M29.01,17.57c-0.26,0.02-0.47-0.02-0.63-0.14c-0.14-0.11-0.24-0.27-0.29-0.5c-0.01-0.2,0.04-0.38,0.14-0.53
		c0.13-0.17,0.32-0.27,0.58-0.32l0.27,0c0.52-0.53,1.07-1.16,1.66-1.88c-0.75-0.7-1.5-1.29-2.25-1.76
		c-0.22-0.12-0.36-0.27-0.43-0.46c-0.05-0.19-0.03-0.38,0.05-0.57c0.11-0.18,0.25-0.3,0.43-0.37c0.26-0.06,0.62,0.06,1.06,0.36
		c0.51-0.88,0.99-1.83,1.46-2.88c0.13-0.22,0.29-0.36,0.49-0.41c0.19-0.06,0.38-0.04,0.58,0.07c0.19,0.11,0.31,0.25,0.36,0.43
		c0.1,0.4-0.51,1.62-1.81,3.64c0.26,0.21,0.56,0.47,0.88,0.76c0.45-0.69,0.85-1.4,1.21-2.15c0.1-0.22,0.24-0.38,0.43-0.46
		c0.17-0.07,0.36-0.06,0.58,0.02c0.19,0.08,0.32,0.21,0.4,0.39c0.07,0.2,0.05,0.41-0.05,0.64c-0.83,1.62-1.81,3.08-2.93,4.37
		l2.27-0.26c-0.18-0.34-0.29-0.56-0.34-0.64c-0.12-0.2-0.16-0.4-0.11-0.59c0.05-0.17,0.15-0.31,0.31-0.43
		c0.18-0.09,0.36-0.12,0.54-0.09c0.19,0.06,0.35,0.18,0.47,0.37c0.02,0.07,0.07,0.17,0.14,0.28c0.84,1.69,1.21,2.68,1.1,2.97
		c-0.07,0.17-0.2,0.29-0.4,0.37c-0.18,0.04-0.36,0.03-0.54-0.02c-0.16-0.09-0.33-0.37-0.52-0.84l-1.68,0.21c0,2.49,0,4.96-0.01,7.42
		c0,0.22-0.07,0.41-0.22,0.55c-0.12,0.13-0.29,0.2-0.51,0.21c-0.22-0.01-0.38-0.08-0.5-0.2c-0.13-0.15-0.2-0.34-0.2-0.57
		c0-2.44,0-4.85,0.01-7.25L29.01,17.57z M29.12,18.47c0.12-0.12,0.29-0.18,0.51-0.18c0.2,0.02,0.37,0.1,0.49,0.21
		c0.12,0.15,0.18,0.34,0.18,0.57c-0.05,0.4-0.15,1.11-0.29,2.11c-0.13,0.96-0.3,1.82-0.49,2.57c-0.07,0.24-0.19,0.4-0.34,0.48
		c-0.16,0.11-0.33,0.14-0.52,0.09c-0.2-0.05-0.35-0.15-0.43-0.3c-0.1-0.18-0.12-0.38-0.07-0.6c0.41-1.51,0.66-2.98,0.74-4.4
		C28.9,18.77,28.97,18.59,29.12,18.47z M37.79,16.61c-0.17,1.47-0.47,2.88-0.91,4.24c-0.78,2.58-1.45,3.96-1.99,4.15
		c-0.19,0.06-0.4,0.05-0.61-0.04c-0.19-0.1-0.32-0.24-0.4-0.43c-0.06-0.23-0.03-0.45,0.09-0.67c0.24-0.5,0.48-1.01,0.7-1.54
		c-0.32,0.11-0.58,0.1-0.78-0.02c-0.17-0.14-0.27-0.33-0.31-0.55l-0.43-2.84c-0.02-0.22,0.01-0.41,0.09-0.57
		c0.13-0.15,0.29-0.25,0.47-0.28c0.23-0.01,0.41,0.02,0.56,0.11c0.17,0.14,0.27,0.33,0.31,0.55l0.41,2.75
		c1.08-3.04,1.61-6.05,1.58-9.04l0-1.99l-1.53,0c-0.26,0-0.48-0.08-0.63-0.23c-0.16-0.15-0.23-0.34-0.23-0.55
		c0-0.24,0.08-0.43,0.24-0.57c0.16-0.13,0.37-0.2,0.63-0.19l7.61,0.01c0.3,0.01,0.56,0.14,0.78,0.39c0.2,0.31,0.28,0.66,0.23,1.05
		l-0.92,3.25l1.03,0c0.4,0,0.72,0.15,0.97,0.44c0.23,0.31,0.29,0.79,0.18,1.44c-0.27,1.91-1.18,3.92-2.75,6.05
		c0.97,0.97,1.89,1.74,2.76,2.31c0.24,0.15,0.38,0.34,0.43,0.57c0.02,0.21-0.02,0.41-0.14,0.6c-0.17,0.19-0.35,0.3-0.54,0.34
		c-0.65,0.09-1.82-0.82-3.51-2.74c-0.04,0.01-0.06,0.04-0.07,0.07c-2.26,1.88-3.7,2.75-4.31,2.61c-0.23-0.1-0.38-0.24-0.47-0.43
		c-0.12-0.24-0.14-0.45-0.07-0.64c0.06-0.18,0.2-0.33,0.43-0.44c1.3-0.66,2.47-1.45,3.52-2.38c-1.08-1.69-1.84-3.73-2.27-6.11
		C37.89,15.7,37.84,16.14,37.79,16.61z M41.13,13.6l0.78-2.73c0.01-0.14-0.01-0.24-0.05-0.28c-0.07-0.08-0.19-0.12-0.34-0.12
		l-3.35,0l0,1.99c-0.01,0.33-0.04,0.72-0.07,1.15L41.13,13.6z M41.22,20.29c1.22-1.55,1.97-3.15,2.26-4.79
		c0-0.13-0.02-0.22-0.07-0.27c-0.07-0.06-0.22-0.09-0.45-0.09l-3.46,0c0.27,1.84,0.77,3.41,1.49,4.73
		C41.06,20.01,41.13,20.15,41.22,20.29z"/>
</g>
<g>
	<path class="st1" d="M15.02,43.56c0,0.23-0.08,0.42-0.23,0.56c-0.12,0.13-0.29,0.19-0.52,0.2c-0.2-0.01-0.38-0.07-0.52-0.19
		c-0.14-0.15-0.22-0.34-0.22-0.58l0-4.57c-0.2,0.27-0.4,0.52-0.58,0.74c-0.75,0.9-1.47,1.65-2.17,2.24
		c-0.19,0.16-0.4,0.23-0.63,0.22c-0.2-0.01-0.38-0.09-0.54-0.24c-0.14-0.17-0.22-0.35-0.22-0.53c0.04-0.21,0.15-0.39,0.34-0.56
		c0.99-0.81,1.76-1.52,2.31-2.14c0.35-0.42,0.76-0.96,1.23-1.63l-2.76,0c-0.25,0-0.44-0.07-0.56-0.21c-0.13-0.13-0.2-0.3-0.2-0.51
		c0.01-0.19,0.08-0.36,0.2-0.5c0.14-0.14,0.33-0.2,0.56-0.2l3.01,0l0-0.94c0.01-0.24,0.08-0.42,0.2-0.53
		c0.13-0.13,0.31-0.19,0.54-0.19c0.2,0.01,0.38,0.07,0.52,0.19c0.16,0.14,0.23,0.31,0.23,0.53l0,0.94l2.85,0
		c0.24,0.01,0.42,0.07,0.54,0.19c0.13,0.13,0.2,0.3,0.2,0.51c-0.01,0.19-0.08,0.36-0.2,0.5c-0.13,0.15-0.31,0.22-0.54,0.22l-2.71,0
		c1.13,1.14,2.08,2.14,2.85,3c0.13,0.16,0.19,0.36,0.18,0.6c-0.02,0.19-0.13,0.35-0.31,0.46c-0.18,0.1-0.37,0.15-0.56,0.14
		c-0.2-0.02-0.38-0.14-0.54-0.36c-0.48-0.63-1.07-1.32-1.77-2.09L15.02,43.56z M18.28,28.2c0.17,0.1,0.28,0.25,0.32,0.43
		c0.05,0.21,0.03,0.39-0.05,0.56c-0.07,0.17-0.24,0.28-0.51,0.32c-0.72,0.19-1.7,0.33-2.94,0.41c-1.84,0.18-3.34,0.28-4.51,0.29
		c-0.23-0.01-0.41-0.07-0.56-0.19c-0.13-0.13-0.2-0.3-0.2-0.51c0.01-0.19,0.08-0.37,0.2-0.51c0.13-0.14,0.31-0.21,0.54-0.2
		c1.11-0.03,2.38-0.11,3.82-0.22c1.47-0.12,2.57-0.27,3.3-0.44C17.94,28.1,18.13,28.12,18.28,28.2z M10.27,31.16
		c0.06-0.17,0.19-0.3,0.38-0.38c0.18-0.08,0.36-0.1,0.54-0.05c0.18,0.06,0.32,0.19,0.43,0.39c0.34,0.64,0.63,1.44,0.88,2.4
		c0.05,0.23,0.03,0.42-0.05,0.56c-0.1,0.16-0.25,0.26-0.47,0.31c-0.2,0.03-0.38,0.01-0.54-0.07c-0.17-0.11-0.28-0.28-0.32-0.5
		c-0.25-0.9-0.51-1.6-0.77-2.09C10.25,31.53,10.23,31.34,10.27,31.16z M13.59,30.77c0.1-0.15,0.24-0.25,0.43-0.29
		c0.19-0.03,0.37-0.01,0.52,0.07c0.18,0.1,0.29,0.26,0.34,0.48c0.02,0.17,0.07,0.46,0.14,0.87c0.07,0.41,0.11,0.78,0.13,1.1
		c0,0.23-0.06,0.41-0.18,0.55c-0.11,0.14-0.27,0.21-0.49,0.22c-0.19,0-0.36-0.06-0.5-0.17c-0.14-0.15-0.22-0.33-0.23-0.55
		c-0.01-0.3-0.04-0.62-0.09-0.98c-0.08-0.38-0.13-0.62-0.14-0.74C13.48,31.1,13.51,30.91,13.59,30.77z M17.56,30.29
		c0.17-0.09,0.35-0.11,0.54-0.07c0.22,0.06,0.37,0.16,0.45,0.31c0.08,0.16,0.1,0.35,0.05,0.56c-0.23,0.86-0.62,1.82-1.17,2.89
		c-0.11,0.22-0.25,0.35-0.43,0.39c-0.18,0.06-0.37,0.05-0.56-0.03c-0.19-0.09-0.31-0.22-0.36-0.39c-0.06-0.17-0.03-0.37,0.09-0.58
		c0.54-1.06,0.89-1.92,1.05-2.58C17.29,30.56,17.41,30.39,17.56,30.29z M25.18,37.49c0.16-0.19,0.33-0.3,0.52-0.31
		c0.19-0.02,0.38,0.03,0.58,0.17c0.17,0.14,0.27,0.3,0.31,0.48c0.04,0.19-0.02,0.38-0.16,0.56c-0.45,0.59-0.99,1.19-1.64,1.78
		c-0.66,0.65-1.31,1.2-1.93,1.64c-0.66,0.49-1.34,0.92-2.04,1.3c-0.77,0.42-1.49,0.75-2.15,0.99c-0.24,0.08-0.46,0.08-0.65,0
		c-0.17-0.07-0.29-0.21-0.38-0.41c-0.08-0.22-0.09-0.41-0.02-0.58c0.08-0.18,0.23-0.31,0.45-0.39c1.05-0.39,1.82-0.72,2.33-1.01
		c0.48-0.26,1-0.6,1.55-1.01c0.55-0.41,1.05-0.82,1.48-1.23C23.94,38.98,24.52,38.32,25.18,37.49z M25.39,32.52
		c0.18,0,0.36,0.06,0.54,0.17c0.16,0.15,0.24,0.31,0.25,0.5c0.01,0.19-0.07,0.38-0.25,0.56c-1.11,1.14-2.12,2.02-3.03,2.63
		c-1.02,0.67-1.96,1.17-2.8,1.49c-0.24,0.09-0.47,0.1-0.69,0.02c-0.18-0.09-0.31-0.23-0.4-0.41c-0.07-0.23-0.07-0.42,0.02-0.56
		c0.08-0.21,0.25-0.35,0.51-0.43c1.05-0.42,1.95-0.89,2.72-1.42c0.9-0.6,1.76-1.36,2.56-2.26C24.98,32.63,25.17,32.53,25.39,32.52z
		 M24.63,27.93c0.18-0.01,0.36,0.04,0.54,0.15c0.16,0.14,0.25,0.29,0.29,0.46c0.01,0.22-0.06,0.42-0.22,0.6
		c-0.93,1.04-1.79,1.85-2.58,2.43c-0.85,0.64-1.65,1.11-2.38,1.42c-0.24,0.1-0.47,0.12-0.69,0.05c-0.19-0.08-0.33-0.21-0.41-0.39
		c-0.08-0.21-0.09-0.39-0.02-0.56c0.1-0.19,0.26-0.34,0.49-0.44c0.88-0.41,1.64-0.86,2.29-1.35c0.77-0.55,1.48-1.23,2.13-2.05
		C24.23,28.05,24.42,27.95,24.63,27.93z"/>
	<path class="st1" d="M36.08,29.78c-0.78,0.75-1.81,1.54-3.09,2.36c-1.48,0.9-2.79,1.57-3.92,2.02c-0.24,0.08-0.46,0.08-0.65,0
		c-0.2-0.1-0.35-0.25-0.43-0.43c-0.1-0.23-0.1-0.43-0.02-0.62c0.08-0.19,0.24-0.33,0.47-0.41c1.78-0.68,3.16-1.34,4.15-1.96
		c1.14-0.72,2.17-1.51,3.09-2.38c0.3-0.28,0.62-0.43,0.96-0.43c0.36,0,0.65,0.11,0.88,0.33c1,0.98,2.04,1.84,3.14,2.57
		c0.97,0.63,2.31,1.29,4.02,1.97c0.23,0.09,0.38,0.24,0.45,0.45c0.06,0.21,0.05,0.4-0.04,0.58c-0.11,0.22-0.26,0.36-0.45,0.43
		c-0.19,0.08-0.4,0.07-0.63-0.03c-0.93-0.37-2.15-1.04-3.68-2.01c-1.37-0.88-2.42-1.7-3.15-2.47c-0.18-0.15-0.36-0.22-0.54-0.22
		C36.43,29.52,36.24,29.61,36.08,29.78z M39.66,42.19c-0.04-0.07-0.06-0.14-0.07-0.21c-0.04-0.19,0.02-0.4,0.18-0.62
		c0.46-0.67,0.78-1.24,0.96-1.69c0.08-0.23,0.22-0.38,0.42-0.46c0.17-0.08,0.36-0.08,0.58,0c0.2,0.07,0.35,0.19,0.43,0.36
		c0.07,0.19,0.07,0.4-0.02,0.62c-0.24,0.6-0.61,1.27-1.12,2l3.41,0c0.24,0.01,0.42,0.07,0.54,0.19c0.13,0.13,0.2,0.3,0.2,0.51
		c-0.01,0.19-0.08,0.36-0.2,0.5c-0.13,0.15-0.31,0.22-0.54,0.22L28.69,43.6c-0.25,0-0.44-0.07-0.56-0.21
		c-0.13-0.13-0.2-0.3-0.2-0.51c0.01-0.19,0.08-0.36,0.2-0.5c0.14-0.14,0.33-0.2,0.56-0.2l3.75,0c-0.02-0.03-0.04-0.07-0.05-0.1
		c-0.42-0.78-0.8-1.36-1.13-1.75c-0.16-0.18-0.23-0.38-0.22-0.58c0.01-0.17,0.11-0.33,0.29-0.48c0.17-0.11,0.35-0.17,0.54-0.15
		c0.2,0.02,0.38,0.13,0.54,0.31c0.46,0.51,0.91,1.19,1.35,2.02c0.1,0.22,0.12,0.42,0.07,0.6c-0.04,0.05-0.06,0.09-0.07,0.14l2.06,0
		l0-4.13l-5.46,0c-0.25,0-0.44-0.07-0.56-0.21c-0.13-0.13-0.2-0.3-0.2-0.51c0.01-0.19,0.08-0.36,0.2-0.5
		c0.14-0.14,0.33-0.2,0.56-0.2l5.46,0l0-2.28l-3.52,0c-0.25,0-0.44-0.07-0.56-0.21c-0.13-0.13-0.2-0.3-0.2-0.51
		c0.01-0.19,0.08-0.36,0.2-0.5c0.14-0.14,0.33-0.21,0.56-0.2l8.51,0.01c0.24,0.01,0.42,0.07,0.54,0.19c0.13,0.13,0.2,0.3,0.2,0.51
		c-0.01,0.19-0.08,0.36-0.2,0.5c-0.13,0.15-0.31,0.22-0.54,0.22l-3.5,0l0,2.28l5.66,0.01c0.24,0.01,0.42,0.07,0.54,0.19
		c0.13,0.13,0.2,0.3,0.2,0.51c-0.01,0.19-0.08,0.36-0.2,0.5c-0.13,0.15-0.31,0.22-0.54,0.22l-5.66-0.01l0,4.13L39.66,42.19z"/>
</g>
</svg>
