<?xml version="1.0" encoding="utf-8"?>
<!-- Generator: Adobe Illustrator 22.0.1, SVG Export Plug-In . SVG Version: 6.00 Build 0)  -->
<svg version="1.1" id="圖層_1" xmlns="http://www.w3.org/2000/svg" xmlns:xlink="http://www.w3.org/1999/xlink" x="0px" y="0px"
	 width="67px" height="43px" viewBox="0 0 67 43" style="enable-background:new 0 0 67 43;" xml:space="preserve">
<style type="text/css">
	.st0{fill:#64117F;}
</style>
<g>
	<path class="st0" d="M6.3,20.2c0,0,13.9,0.4,20.2-1c1.5-5.2,1.8-5.3,2.1-6.5c0.3-1.2,1.2-2.8,4.1-3.3C35.5,8.9,51,6,60.7,2.5
		c-2.3,3.3-17,13-25.5,15c3.4-0.5,10.6-1.9,21.6-7.6c-3.7,5.4-11.2,12.9-27,14.6c2,0.3,1.7,0.3,3.7,0.2c-2.9,4.1-9.3,11-25,15.8
		c4.9-2.5,12.5-8.6,15.4-16C17.9,25,10.2,23.1,6.3,20.2z"/>
</g>
</svg>
