<?xml version="1.0" encoding="utf-8"?>
<!-- Generator: Adobe Illustrator 26.0.3, SVG Export Plug-In . SVG Version: 6.00 Build 0)  -->
<svg version="1.1" id="圖層_1" xmlns="http://www.w3.org/2000/svg" xmlns:xlink="http://www.w3.org/1999/xlink" x="0px" y="0px"
	 viewBox="0 0 113.9 24.3" style="enable-background:new 0 0 113.9 24.3;" xml:space="preserve">
<style type="text/css">
	.st0{enable-background:new    ;}
	.st1{fill:#1C86B9;}
	.st2{fill:#F8A300;}
	.st3{fill:none;}
	.st4{fill:#FFFFFF;}
	.st5{fill:#527F9C;}
</style>
<g class="st0">
	<path class="st1" d="M4,5.1L0,1.7h19.4v4.8l-2.3-1.3H9.8l3.4,1.3v14.1l0.9,3.5H6.9l0.9-3.5V5.1H4z"/>
</g>
<g class="st0">
	<path class="st2" d="M36.7,14.3H26.5l3.3,1.3V24h-6.3l0.9-3.5V4.3l-3.4-2.6h8.8v9.1h6.9V4.3l-3.4-2.6h8.8v18.9l0.9,3.5h-6.3V14.3z"
		/>
	<path class="st2" d="M48.9,1.7h9l6.6,18.9l1.8,3.5h-6.4l-1.4-4l-10.7,0l1.8,0.9L48.5,24H44l1.8-3.4l5.7-16.9L48.9,1.7z M51.1,16.5
		h6.2l-3.8-11l-0.4,4.8L51.1,16.5z"/>
</g>
<path class="st3" d="M77.1,12.9c-0.2-0.3-0.5-0.4-0.8-0.4c-0.3,0-0.6,0.1-0.8,0.4c-0.4,0.6-0.5,1.3-0.5,2c-0.1,0.8,0.1,1.5,0.4,2.2
	c0.2,0.4,0.6,0.7,1.1,0.7l0,0c0.3,0,0.5-0.2,0.7-0.4c0.4-0.7,0.5-1.4,0.5-2.2C77.6,14.4,77.5,13.6,77.1,12.9z"/>
<path class="st4" d="M81.5,9.7c-1.1-1.2-2.6-1.9-4.2-1.9c-1.6,0-3.1,0.7-4.1,2v-7h-3.7v19.4h3.5v-2.1c0.5,0.7,1.2,1.4,2,1.8
	c0.7,0.4,1.5,0.6,2.4,0.6c1.6,0,3.1-0.7,4.2-1.9c1.2-1.6,1.8-3.5,1.7-5.5C83.3,13.1,82.7,11.2,81.5,9.7z M79.4,15.2
	c0.1,1.2-0.2,2.3-0.9,3.3c-0.5,0.7-1.3,1.1-2.1,1.1c-1.1,0-2-0.6-2.6-1.5c-0.5-1-0.8-2.1-0.7-3.2c-0.1-1.1,0.2-2.2,0.9-3.2
	c0.5-0.7,1.4-1.1,2.2-1c0.9,0,1.7,0.4,2.2,1.1C79.2,12.8,79.5,14,79.4,15.2z"/>
<polygon class="st5" points="75,1 75,1 75,1 "/>
<polygon class="st5" points="77.3,23.4 77.3,23.4 77.3,23.4 "/>
<g>
	<path class="st5" d="M85,15c0.1-2.4-0.6-4.7-2.1-6.5C81.4,6.9,79.4,6,77.2,6c-0.8,0-1.5,0.1-2.3,0.4V1h-7.3v23h7.1v-0.2
		c0.8,0.3,1.7,0.5,2.6,0.5c2.1,0,4.2-0.9,5.5-2.6C84.3,19.9,85.1,17.5,85,15z M77.3,22.5c-0.8,0-1.6-0.2-2.4-0.6
		c-0.8-0.4-1.5-1-2-1.8v2.1h-3.5V2.8h3.7v7c1-1.2,2.5-2,4.1-2c1.6,0,3.2,0.6,4.2,1.9c1.2,1.5,1.8,3.4,1.7,5.3c0.1,2-0.5,4-1.7,5.5
		C80.4,21.8,78.9,22.5,77.3,22.5z M77.3,23.4C77.3,23.4,77.3,23.4,77.3,23.4C77.3,23.4,77.3,23.4,77.3,23.4L77.3,23.4z"/>
	<path class="st5" d="M76.2,10.7c-0.9,0-1.7,0.4-2.2,1c-0.7,0.9-1,2-0.9,3.2c-0.1,1.1,0.2,2.2,0.7,3.2c0.5,0.9,1.5,1.5,2.6,1.5
		c0.8,0,1.6-0.4,2.1-1.1c0.7-1,1-2.1,0.9-3.3c0.1-1.2-0.2-2.4-0.9-3.5C78,11.1,77.1,10.7,76.2,10.7z M75.3,17.1
		c-0.3-0.7-0.5-1.5-0.4-2.2c-0.1-0.7,0.1-1.4,0.5-2c0.2-0.3,0.5-0.4,0.8-0.4c0.3,0,0.6,0.1,0.8,0.4c0.4,0.7,0.6,1.5,0.5,2.3
		c0.1,0.8-0.1,1.5-0.5,2.2c-0.2,0.2-0.4,0.4-0.7,0.4l0,0C75.9,17.8,75.5,17.5,75.3,17.1z"/>
</g>
<path class="st4" d="M95.4,19.3c-0.4,0.3-0.9,0.5-1.5,0.5c-0.8,0-1.6-0.3-2.1-0.9c-0.6-0.7-0.9-1.6-0.9-2.6h9.3
	c0.1-2.8-0.5-5-1.7-6.3c-1.3-1.4-3.1-2.2-4.9-2.1h0c-1.8,0-3.4,0.7-4.6,2c-1.3,1.5-1.9,3.5-1.8,5.5c-0.1,1.7,0.4,3.4,1.4,4.8
	c1.3,1.7,3.3,2.6,5.4,2.4c1.4,0.1,2.7-0.3,3.9-1.1c1.1-0.8,1.9-1.9,2.3-3.1l-3.7-0.6C96.2,18.3,95.8,18.9,95.4,19.3z M91.7,11.6
	c0.5-0.6,1.2-0.9,2-0.9c0.7,0,1.4,0.3,1.9,0.8c0.6,0.7,0.9,1.6,0.8,2.5h-5.6C90.9,13.1,91.2,12.2,91.7,11.6z"/>
<g>
	<path class="st5" d="M102,16.9l0-0.6c0.1-3.3-0.7-5.8-2.2-7.6c-1.6-1.8-3.9-2.8-6.3-2.7l0,0c-2.3-0.1-4.4,0.9-5.9,2.6
		c-1.6,1.9-2.4,4.2-2.3,6.7c-0.1,2.1,0.5,4.2,1.7,5.9c1.6,2.1,4.2,3.3,6.9,3.1c1.7,0.1,3.4-0.4,4.9-1.4c1.4-1,2.4-2.4,2.9-4l0.7-2
		L102,16.9z M93.9,22.5c-2.1,0.2-4.1-0.7-5.4-2.4c-1-1.4-1.5-3.1-1.4-4.8c-0.1-2,0.5-3.9,1.8-5.5c1.2-1.3,2.9-2,4.6-2h0
		c1.9-0.1,3.7,0.7,4.9,2.1c1.2,1.4,1.8,3.5,1.7,6.3h-9.3c0,0.9,0.3,1.9,0.9,2.6c0.5,0.6,1.3,0.9,2.1,0.9c0.5,0,1-0.2,1.5-0.5
		c0.5-0.4,0.8-0.9,0.9-1.5l3.7,0.6c-0.4,1.2-1.2,2.3-2.3,3.1C96.6,22.2,95.2,22.6,93.9,22.5z"/>
	<path class="st5" d="M95.7,11.5c-0.5-0.5-1.2-0.9-1.9-0.8c-0.8,0-1.5,0.3-2,0.9c-0.6,0.7-0.8,1.5-0.8,2.4h5.6
		C96.5,13.1,96.2,12.2,95.7,11.5z"/>
</g>
<path class="st4" d="M110.1,19.4c-0.2,0-0.4-0.1-0.6-0.2c-0.2-0.1-0.3-0.3-0.3-0.5c-0.1-0.7-0.1-1.3-0.1-2v-5.7h2.5v-3h-2.5v-5
	l-3.7,2.2v2.8h-1.7v3h1.7v6.1c0,0.9,0,1.7,0.1,2.6c0.1,0.5,0.2,1,0.5,1.4c0.3,0.4,0.7,0.7,1.2,0.9c0.6,0.2,1.2,0.3,1.8,0.3
	c1,0,2-0.2,2.9-0.6l-0.3-2.9C111.2,19.3,110.7,19.4,110.1,19.4z"/>
<path class="st5" d="M113.8,21.8l-0.3-2.9l-0.3-2.3l-2.2,0.8l-0.1,0c0-0.2,0-0.4,0-0.6v-3.9h2.5V6.3h-2.5V0.1l-2.7,1.6l-3.7,2.2
	l-0.9,0.5v2h-1.7v6.6h1.7v4.3c0,1,0,2,0.1,2.9c0.1,0.8,0.4,1.5,0.8,2.2c0.5,0.7,1.2,1.2,2,1.5c0.8,0.3,1.6,0.5,2.5,0.5
	c1.3,0,2.5-0.2,3.6-0.7l1.2-0.5L113.8,21.8z M109,22.5c-0.6,0-1.2-0.1-1.8-0.3c-0.5-0.2-0.9-0.5-1.2-0.9c-0.3-0.4-0.5-0.9-0.5-1.4
	c-0.1-0.9-0.1-1.7-0.1-2.6v-6.1h-1.7v-3h1.7V5.4l3.7-2.2v5h2.5v3h-2.5v5.7c0,0.7,0,1.3,0.1,2c0,0.2,0.2,0.4,0.3,0.5
	c0.2,0.1,0.4,0.2,0.6,0.2c0.5,0,1-0.2,1.5-0.4L112,22C111,22.3,110,22.5,109,22.5z"/>
</svg>
