<?xml version="1.0" encoding="utf-8"?>
<!-- Generator: Adobe Illustrator 16.0.0, SVG Export Plug-In . SVG Version: 6.00 Build 0)  -->
<!DOCTYPE svg PUBLIC "-//W3C//DTD SVG 1.1//EN" "http://www.w3.org/Graphics/SVG/1.1/DTD/svg11.dtd">
<svg version="1.1" id="圖層_1" xmlns="http://www.w3.org/2000/svg" xmlns:xlink="http://www.w3.org/1999/xlink" x="0px" y="0px"
	 width="21px" height="21px" viewBox="0 0 21 21" enable-background="new 0 0 21 21" xml:space="preserve">
<g>
	<path fill="#FFFFFF" d="M12,0.2c-0.8-0.5-1.3,0-1.3,0L4.8,5c0,0-3.1,0-3.8,0C0.4,5,0,5.8,0,6.2c0,0.5,0,7.399,0,8.5
		c0,1.1,1,1.2,1,1.2L4.7,16l6,4.9c0,0,0.7,0.399,1.2,0c0.6-0.4,0.6-1,0.6-1V1.3C12.5,1.3,12.6,0.6,12,0.2z M4.2,14.3H1.7V6.6h2.5
		V14.3z M10.9,18.8l-5.1-4.1V6.2l5.1-4.1V18.8z"/>
	<path fill="#FFFFFF" d="M15,4.7L14.1,6c0,0,1.9,1.4,1.9,4.3c0,2.9-2.1,4.3-2.1,4.3L14.8,15.9c0,0,2.8-2,2.8-5.601
		C17.6,6.7,15,4.7,15,4.7z"/>
	<path fill="#FFFFFF" d="M17.3,4.3c0,0,2,1.5,2,5.9c0,4.399-2.2,6.1-2.2,6.1l1.101,1.2c0,0,2.8-2.1,2.8-7.3s-2.5-7.1-2.5-7.1
		L17.3,4.3z"/>
</g>
</svg>
