<?xml version="1.0" encoding="utf-8"?>
<!-- Generator: Adobe Illustrator 16.0.0, SVG Export Plug-In . SVG Version: 6.00 Build 0)  -->
<!DOCTYPE svg PUBLIC "-//W3C//DTD SVG 1.1//EN" "http://www.w3.org/Graphics/SVG/1.1/DTD/svg11.dtd">
<svg version="1.1" id="圖層_1" xmlns="http://www.w3.org/2000/svg" xmlns:xlink="http://www.w3.org/1999/xlink" x="0px" y="0px"
	 width="20px" height="20px" viewBox="-1.5 -1.5 20 20" enable-background="new -1.5 -1.5 20 20" xml:space="preserve">
<g>
	<circle fill="#F22626" cx="8.5" cy="8.5" r="10"/>
</g>
<g>
	<path fill="#FFFFFF" d="M8.501,10.374c0.39,0,0.644-0.258,0.708-0.709l0.711-6.074c0.063-0.451-0.193-0.84-0.646-0.84H7.725
		c-0.453,0-0.711,0.389-0.646,0.84l0.711,6.074C7.792,10.116,8.114,10.374,8.501,10.374z"/>
	<path fill="#FFFFFF" d="M8.501,11.538c-0.774,0-1.354,0.58-1.354,1.355s0.58,1.355,1.354,1.355c0.773,0,1.353-0.58,1.353-1.355
		C9.854,12.056,9.274,11.474,8.501,11.538z"/>
</g>
</svg>
