<?xml version="1.0" encoding="utf-8"?>
<!-- Generator: Adobe Illustrator 22.0.1, SVG Export Plug-In . SVG Version: 6.00 Build 0)  -->
<svg version="1.1" id="Layer_1" xmlns="http://www.w3.org/2000/svg" xmlns:xlink="http://www.w3.org/1999/xlink" x="0px" y="0px"
	 width="86px" height="30px" viewBox="0 0 86 30" style="enable-background:new 0 0 86 30;" xml:space="preserve">
<style type="text/css">
	.st0{fill:url(#SVGID_1_);}
	.st1{fill:url(#SVGID_2_);}
</style>
<g>
	<path d="M31.7,4.4h15.8V8H35.8v5.2h7.8v3.6h-7.8v5.8h12v3.6H31.7V4.4z"/>
	<path d="M46.7,10.7h4.2l3.7,10.8l3.4-10.8H62l-5.6,15.5h-3.8L46.7,10.7z"/>
	<path d="M61.4,18.5c0-4.7,3.3-8.1,8-8.1c4.7,0,7.9,3.3,7.9,8.1c0,4.7-3.3,8-8,8C64.6,26.5,61.4,23.2,61.4,18.5z M73.1,18.6v-0.1
		c0-2.9-1.4-4.7-3.8-4.7c-2.4,0-3.8,1.8-3.8,4.7v0.1c0,2.9,1.4,4.6,3.8,4.6C71.7,23.2,73.1,21.5,73.1,18.6z"/>
</g>
<g>
	<path d="M23.3,14.6c1.3,0,2.7,0,4.2-0.1c-0.2-3.1-1.2-5.6-2.7-7.6c0.1,0.5,0.1,1.1,0.1,1.7C24.9,10.7,24.3,12.8,23.3,14.6z"/>
	<path d="M22.8,15.4c-2.2,3.4-6.1,5.6-10.5,5.6c-0.3,0-0.6,0-0.9,0c-1.1,1.7-1.8,3.6-2.6,5.4c7.8,4.2,18-0.2,18.7-10.9
		C25.8,15.4,24.2,15.4,22.8,15.4z"/>
	
		<radialGradient id="SVGID_1_" cx="-349.0845" cy="413.1432" r="10.7007" fx="-359.7613" fy="413.8591" gradientTransform="matrix(-0.8331 -0.5531 -0.4978 0.7498 -68.3354 -494.5666)" gradientUnits="userSpaceOnUse">
		<stop  offset="0.1698" style="stop-color:#ECECEC"/>
		<stop  offset="0.2146" style="stop-color:#D6D6D6"/>
		<stop  offset="0.3543" style="stop-color:#969696"/>
		<stop  offset="0.4875" style="stop-color:#606060"/>
		<stop  offset="0.6108" style="stop-color:#373737"/>
		<stop  offset="0.722" style="stop-color:#191919"/>
		<stop  offset="0.8171" style="stop-color:#060606"/>
		<stop  offset="0.8851" style="stop-color:#000000"/>
	</radialGradient>
	<path class="st0" d="M8.8,3.6c2.2,4.9,3.8,10.7,14.6,11c1-1.8,1.6-3.9,1.6-6.1c0-0.6,0-1.1-0.1-1.7C21.1,2,14.3,0.6,8.8,3.6z"/>
	
		<radialGradient id="SVGID_2_" cx="-460.5313" cy="-40.2513" r="4.4985" fx="-462.9989" fy="-40.1989" gradientTransform="matrix(-0.4226 -0.9063 -2.3873 1.1132 -273.6114 -354.3164)" gradientUnits="userSpaceOnUse">
		<stop  offset="0.1155" style="stop-color:#ECECEC"/>
		<stop  offset="0.1694" style="stop-color:#E1E1E1"/>
		<stop  offset="0.2654" style="stop-color:#C2C2C2"/>
		<stop  offset="0.3924" style="stop-color:#909090"/>
		<stop  offset="0.5455" style="stop-color:#4C4C4C"/>
		<stop  offset="0.6987" style="stop-color:#000000"/>
	</radialGradient>
	<path class="st1" d="M22.8,15.4c-6.5,0.3-9.5,2.7-11.4,5.6c0.3,0,0.6,0,0.9,0C16.7,21.1,20.6,18.8,22.8,15.4z"/>
</g>
</svg>
