<?xml version="1.0" encoding="utf-8"?>
<!-- Generator: Adobe Illustrator 26.0.3, SVG Export Plug-In . SVG Version: 6.00 Build 0)  -->
<svg version="1.1" id="圖層_1" xmlns="http://www.w3.org/2000/svg" xmlns:xlink="http://www.w3.org/1999/xlink" x="0px" y="0px"
	 width="62px" height="34px" viewBox="0 0 62 34" style="enable-background:new 0 0 62 34;" xml:space="preserve">
<style type="text/css">
	.st0{fill:#FF6D2D;}
	.st1{fill:#191970;}
	.st2{fill:#FFFFFF;}
	.st3{fill:#E0E0E0;}
</style>
<g>
	<path class="st0" d="M54.9,3.5c-1.5-1-3.4-1.5-5.3-1.5H8.7c-1.3,0-2.4,0.7-3,1.9C5.2,5.1,5.3,6.4,6.1,7.4l1,1.2L3.1,32h15.7
		l1.3-7.5h8.8c0.1,0.4,0.1,0.7,0.3,1.1c0,0.1,0,0.1,0.1,0.2l0,0c0.5,1.4,1.2,2.6,2.3,3.6c0.1,0.1,0.2,0.2,0.4,0.3
		c0.2,0.2,0.4,0.4,0.7,0.5c0.1,0.1,0.2,0.1,0.3,0.2c0.2,0.1,0.3,0.2,0.5,0.3c1,0.5,2,0.9,3.1,1.1c0.5,0.1,1,0.1,1.5,0.1
		c0,0,0.1,0,7.4,0h0c1.7,0,3.5-0.4,5.1-1.2c0.4-0.2,0.7-0.4,1.1-0.6c0.3-0.2,0.5-0.4,0.8-0.5c0.5-0.4,1-0.8,1.4-1.2l0,0
		c1.8-1.8,3-4.1,3.4-6.5l0.9-5.1l0.6-3.6C59.5,9.2,58,5.6,54.9,3.5z M57.7,12.9l-1.5,8.7c-0.4,2.2-1.5,4.3-3.1,5.9l0,0
		c-0.4,0.4-0.9,0.8-1.3,1.1c-0.2,0.2-0.5,0.3-0.7,0.5c-0.3,0.2-0.7,0.4-1,0.6c-1.5,0.7-3.1,1.1-4.7,1.1c-7.3,0-7.4,0-7.4,0
		c-0.5,0-0.9,0-1.3-0.1c-1-0.2-1.9-0.5-2.8-1c-0.2-0.1-0.3-0.2-0.5-0.3c-0.1-0.1-0.2-0.1-0.2-0.2c-0.2-0.2-0.4-0.3-0.6-0.5
		c-0.1-0.1-0.2-0.2-0.3-0.3c-0.9-0.9-1.6-2-2-3.2l0,0c0-0.1,0-0.1-0.1-0.2c-0.2-0.6-0.3-1.2-0.3-1.8H19.2l-1.3,7.5H4.3l4-22.6L7,6.7
		C6.4,6.1,6.3,5.1,6.7,4.3c0.4-0.8,1.2-1.3,2-1.3h40.9c1.7,0,3.4,0.5,4.7,1.4h0C57,6.2,58.4,9.5,57.7,12.9z"/>
	<path class="st1" d="M54.3,4.4L54.3,4.4c-1.4-0.9-3-1.4-4.7-1.4H8.7c-0.9,0-1.7,0.5-2,1.3C6.3,5.1,6.4,6.1,7,6.7l1.3,1.6l-4,22.6
		h13.6l1.3-7.5h10.6c0,0.6,0.2,1.2,0.3,1.8c0,0.1,0,0.1,0.1,0.2l0,0c0.4,1.2,1.1,2.3,2,3.2c0.1,0.1,0.2,0.2,0.3,0.3
		c0.2,0.2,0.4,0.3,0.6,0.5c0.1,0.1,0.2,0.1,0.2,0.2c0.1,0.1,0.3,0.2,0.5,0.3c0.9,0.5,1.8,0.8,2.8,1c0.4,0.1,0.9,0.1,1.3,0.1
		c0,0,0,0,7.4,0c1.6,0,3.2-0.4,4.7-1.1c0.3-0.2,0.7-0.4,1-0.6c0.3-0.2,0.5-0.3,0.7-0.5c0.5-0.3,0.9-0.7,1.3-1.1l0,0
		c1.6-1.6,2.8-3.8,3.1-5.9l1.5-8.7C58.4,9.5,57,6.2,54.3,4.4z M36.3,17H42l-1.6,9.1l7-6.6h7.4v0l-0.2,1.3l-0.1,0.6
		c-0.3,1.9-1.3,3.6-2.7,5c0,0,0,0,0,0c-0.4,0.4-0.7,0.7-1.2,1c-0.2,0.1-0.4,0.3-0.6,0.4c-0.3,0.2-0.6,0.3-0.9,0.5
		c-1.2,0.6-2.5,0.9-3.9,0.9c0,0-7.3,0-7.4,0c-0.4,0-0.7,0-1.1-0.1c-0.8-0.1-1.5-0.4-2.2-0.8c-0.1-0.1-0.2-0.1-0.4-0.2
		c-0.1,0-0.1-0.1-0.2-0.1c-0.2-0.1-0.3-0.2-0.5-0.4c-0.1-0.1-0.2-0.2-0.3-0.2c-0.6-0.6-1-1.2-1.4-2c0,0,0,0,0,0c0,0,0-0.1-0.1-0.1
		c0,0,0,0,0-0.1c0,0,0-0.1,0-0.1c0-0.1,0-0.1-0.1-0.2c0,0,0,0,0,0c0,0,0-0.1,0-0.1c0,0,0,0,0,0c-0.2-0.6-0.3-1.3-0.3-2
		c0-0.4,0-0.9,0.1-1.3L34,8.1c0,0,0,0,0,0c0,0,0-0.1,0-0.1l0,0c0,0,0,0,0,0c0,0,0-0.1,0-0.1c0,0,0-0.1-0.1-0.1l-1.3-1.6h0l-1.1-1.3
		v0h18.1c1.4,0,2.7,0.4,3.8,1.1c0,0,0,0,0,0c0.1,0,0.1,0.1,0.2,0.1c0,0,0,0,0.1,0c0,0,0.1,0.1,0.1,0.1c0,0,0,0,0.1,0
		c0,0,0.1,0.1,0.1,0.1c0,0,0,0,0.1,0c0,0,0.1,0.1,0.1,0.1c0,0,0,0,0.1,0.1c0,0,0.1,0,0.1,0.1c0,0,0.1,0.1,0.1,0.1c0,0,0,0,0.1,0.1
		c0,0,0.1,0.1,0.1,0.1c0,0,0,0,0,0c0.1,0.1,0.1,0.2,0.2,0.2c0,0,0,0,0,0c0,0,0.1,0.1,0.1,0.1c0,0,0,0,0,0c0,0,0.1,0.1,0.1,0.1
		c0,0,0,0,0,0C55,7.5,55.2,7.7,55.3,8c0,0,0,0,0,0c0,0,0,0,0,0c0.7,1.3,1,2.9,0.7,4.7L55.8,14h-8.5h-1.2h0l1.1-6.1L36.3,17z
		 M29.9,15.6L29.9,15.6L29.9,15.6l-0.2,1.3l-0.8,4.8H17.7l-1.3,7.5H7.6H6.4h0l2.2-12.3l1.6-8.8c0,0,0,0,0,0c0,0,0,0,0,0c0,0,0,0,0,0
		c0,0,0-0.1,0-0.1l0,0c0-0.1,0-0.2-0.1-0.2l-1-1.2L9,6.5L8.7,6.1h0L8.6,6L8.3,5.6C8.2,5.5,8.2,5.3,8.2,5.1c0-0.1,0.1-0.2,0.2-0.2
		c0,0,0.1,0,0.1-0.1c0,0,0.1,0,0.1,0h0h20L28.9,5l2.4,2.9l-0.5,3H19.6l-0.8,4.7H29.9z"/>
	<g>
		<path class="st2" d="M55.3,8c-0.3-0.3-0.6-0.6-1-0.8c-1-0.7-2.3-1.1-3.8-1.1H32.5l1.3,1.6c0,0,0,0.1,0.1,0.1c0,0,0,0.1,0,0.1
			c0,0,0,0,0,0L34.8,9c0,0,0,0.1,0.1,0.1c0,0,0,0.1,0,0.1c0,0.1,0,0.1,0,0.2l-2.3,13.2c-0.2,1.2-0.1,2.4,0.2,3.4
			c0,0.1,0,0.1,0.1,0.2c0.1,0.4,0.3,0.8,0.5,1.1l0.1,0.1c0.1,0.1,0.2,0.2,0.3,0.2c0.1,0.1,0.3,0.3,0.5,0.4c0.1,0,0.1,0.1,0.2,0.1
			c0.1,0.1,0.2,0.1,0.4,0.2c0.7,0.4,1.4,0.6,2.2,0.8c0.4,0.1,0.7,0.1,1.1,0.1c0,0,7.4,0,7.4,0c1.3,0,2.7-0.3,3.9-0.9
			c0.3-0.1,0.6-0.3,0.9-0.5c0.2-0.1,0.4-0.3,0.6-0.4c0.4-0.3,0.8-0.6,1.2-1c0,0,0,0,0,0c1.4-1.4,2.3-3.1,2.7-5l0.1-0.6h-6.2l-7,6.6
			l-1-1.3l1.4-7.9h-4.5l-1-1.3l10.9-9.1l1,1.3L47.3,14h8.5l0.2-1.3C56.3,10.9,56,9.3,55.3,8z"/>
		<path class="st2" d="M8.7,6.1L9,6.5l0.1,0.1l1,1.2c0.1,0.1,0.1,0.1,0.1,0.2L11,9c0.1,0.1,0.1,0.2,0.1,0.4c0,0,0,0,0,0L7.6,29.2
			h8.8l1.3-7.5h11.1l0.8-4.8h-9.9l-1-1.3l0.8-4.7h11.1l0.5-3l-1.5-1.8H8.7z"/>
		<path class="st2" d="M10.1,8.1C10.1,8.1,10.1,8.1,10.1,8.1C10.1,8.1,10.1,8.1,10.1,8.1C10.1,8.1,10.1,8.1,10.1,8.1
			C10.1,8.1,10.1,8.1,10.1,8.1z"/>
	</g>
	<g>
		<path class="st3" d="M10.1,7.9L10.1,7.9c0,0,0,0.1,0,0.1c0,0,0,0,0,0c0,0,0,0,0,0c0,0,0,0,0,0l-1.6,8.8L6.4,29.2h1.2l3.5-19.8
			c0,0,0,0,0,0c0-0.1,0-0.3-0.1-0.4L10.1,7.9z"/>
		<polygon class="st3" points="18.8,15.6 19.8,16.9 29.7,16.9 29.9,15.6 29.9,15.6 		"/>
		<path class="st3" d="M8.6,6l0.1,0.1h0h21.1L28.9,5l-0.1-0.1h-20h0c0,0-0.1,0-0.1,0c0,0-0.1,0-0.1,0.1C8.4,4.9,8.3,5,8.2,5.1
			C8.2,5.3,8.2,5.5,8.3,5.6L8.6,6z"/>
		<polygon class="st3" points="40.4,26.1 41.4,27.4 48.4,20.8 54.6,20.8 54.8,19.5 47.4,19.5 		"/>
		<path class="st3" d="M34.9,9.1C34.9,9.1,34.8,9,34.9,9.1l-0.9-1.2l0,0c0,0,0,0.1,0,0.1c0,0,0,0,0,0l-2.3,13.2
			c-0.1,0.5-0.1,0.9-0.1,1.3c0,0.2,0,0.4,0,0.5c0,0.5,0.1,1,0.3,1.5c0,0,0,0,0,0c0,0,0,0.1,0,0.1c0,0,0,0,0,0c0,0.1,0,0.1,0.1,0.2
			c0,0,0,0.1,0,0.1c0,0,0,0,0,0.1c0,0,0,0.1,0.1,0.1c0,0,0,0,0,0c0.3,0.7,0.7,1.4,1.3,1.9c-0.2-0.4-0.4-0.7-0.5-1.1
			c0-0.1,0-0.1-0.1-0.2c-0.3-1-0.4-2.2-0.2-3.4l2.3-13.2c0-0.1,0-0.1,0-0.2C34.9,9.2,34.9,9.1,34.9,9.1z"/>
		<path class="st3" d="M55.3,8c-0.1-0.2-0.2-0.4-0.4-0.6c0,0,0,0,0,0c0,0-0.1-0.1-0.1-0.1c0,0,0,0,0,0c0,0-0.1-0.1-0.1-0.1
			c0,0,0,0,0,0c-0.1-0.1-0.1-0.2-0.2-0.2c0,0,0,0,0,0c0,0-0.1-0.1-0.1-0.1c0,0,0,0-0.1-0.1c0,0-0.1-0.1-0.1-0.1c0,0-0.1,0-0.1-0.1
			c0,0,0,0-0.1-0.1c0,0-0.1-0.1-0.1-0.1c0,0,0,0-0.1,0c0,0-0.1-0.1-0.1-0.1c0,0,0,0-0.1,0c0,0-0.1-0.1-0.1-0.1c0,0,0,0-0.1,0
			c-0.1,0-0.1-0.1-0.2-0.1c0,0,0,0,0,0c-1-0.7-2.3-1.1-3.8-1.1H31.4l1.1,1.3h0h18.1c1.4,0,2.7,0.4,3.8,1.1C54.7,7.4,55,7.7,55.3,8
			C55.3,8,55.3,8,55.3,8C55.3,8,55.3,8,55.3,8z"/>
		<polygon class="st3" points="42,17 36.3,17 37.2,18.3 41.8,18.3 		"/>
		<polygon class="st3" points="47.2,7.9 46.1,14 47.3,14 48.2,9.2 		"/>
	</g>
</g>
</svg>
