<?xml version="1.0" encoding="utf-8"?>
<!-- Generator: Adobe Illustrator 16.0.0, SVG Export Plug-In . SVG Version: 6.00 Build 0)  -->
<!DOCTYPE svg PUBLIC "-//W3C//DTD SVG 1.1//EN" "http://www.w3.org/Graphics/SVG/1.1/DTD/svg11.dtd">
<svg version="1.1" id="Capa_1" xmlns="http://www.w3.org/2000/svg" xmlns:xlink="http://www.w3.org/1999/xlink" x="0px" y="0px"
	 width="50px" height="50px" viewBox="231 231 50 50" enable-background="new 231 231 50 50" xml:space="preserve">
<g opacity="0.5">
	<path fill="#FFFFFF" d="M276.001,232.726h-40c-2.711,0-5,2.284-5,4.988v27.431c0,2.701,2.29,4.986,5,4.986h23.797l8.086,8.872
		c0.161,0.177,0.387,0.271,0.616,0.271c0.102,0,0.203-0.017,0.301-0.056c0.32-0.125,0.533-0.432,0.533-0.776v-8.312h6.667
		c2.708,0,4.999-2.285,4.999-4.986v-27.431C281,235.01,278.709,232.726,276.001,232.726z M244.333,254.338
		c-1.838,0-3.333-1.491-3.333-3.325s1.495-3.325,3.333-3.325c1.838,0,3.333,1.491,3.333,3.325S246.171,254.338,244.333,254.338z
		 M256,254.338c-1.839,0-3.333-1.491-3.333-3.325s1.494-3.325,3.333-3.325c1.838,0,3.333,1.491,3.333,3.325
		S257.838,254.338,256,254.338z M267.666,254.338c-1.837,0-3.332-1.491-3.332-3.325s1.495-3.325,3.332-3.325
		c1.839,0,3.334,1.491,3.334,3.325S269.505,254.338,267.666,254.338z"/>
</g>
</svg>
